<svg xmlns="http://www.w3.org/2000/svg" xmlns:xlink="http://www.w3.org/1999/xlink" width="500" zoomAndPan="magnify" viewBox="0 0 375 374.999991" height="500" preserveAspectRatio="xMidYMid meet" version="1.2"><defs/><g id="9939f0ebdb"><rect x="0" width="375" y="0" height="374.999991" style="fill:#ffffff;fill-opacity:1;stroke:none;"/><rect x="0" width="375" y="0" height="374.999991" style="fill:#171616;fill-opacity:1;stroke:none;"/><g style="fill:#fff9f9;fill-opacity:1;"><g transform="translate(35.501831, 249.192635)"><path style="stroke:none" d="M 104.546875 0 L 60.859375 0 L 60.859375 -51.90625 C 60.859375 -54.707031 60.15625 -56.804688 58.75 -58.203125 C 57.351562 -59.609375 55.710938 -60.3125 53.828125 -60.3125 C 51.941406 -60.3125 50.296875 -59.640625 48.890625 -58.296875 C 47.492188 -56.960938 46.796875 -54.894531 46.796875 -52.09375 L 46.796875 0 L 1.828125 0 L 1.828125 -53.921875 C 1.828125 -63.546875 3.316406 -71.644531 6.296875 -78.21875 C 9.285156 -84.800781 13.304688 -90.101562 18.359375 -94.125 C 23.421875 -98.15625 29.03125 -101.082031 35.1875 -102.90625 C 41.34375 -104.726562 47.585938 -105.640625 53.921875 -105.640625 C 59.035156 -105.640625 64.085938 -104.753906 69.078125 -102.984375 C 74.078125 -101.222656 78.648438 -98.269531 82.796875 -94.125 C 86.328125 -98.03125 90.679688 -100.894531 95.859375 -102.71875 C 101.046875 -104.550781 106.132812 -105.523438 111.125 -105.640625 C 117.582031 -105.640625 123.921875 -104.695312 130.140625 -102.8125 C 136.359375 -100.925781 141.992188 -97.941406 147.046875 -93.859375 C 152.109375 -89.773438 156.160156 -84.441406 159.203125 -77.859375 C 162.242188 -71.285156 163.765625 -63.304688 163.765625 -53.921875 L 163.765625 0 L 118.8125 0 L 118.8125 -52.09375 C 118.8125 -54.894531 118.078125 -56.960938 116.609375 -58.296875 C 115.148438 -59.640625 113.503906 -60.3125 111.671875 -60.3125 C 109.847656 -60.3125 108.203125 -59.609375 106.734375 -58.203125 C 105.273438 -56.804688 104.546875 -54.707031 104.546875 -51.90625 Z M 104.546875 0 "/></g></g><g style="fill:#171616;fill-opacity:1;"><g transform="translate(183.386995, 213.935648)"><path style="stroke:none" d="M -3.675781 -79.988281 L 39.226562 -79.988281 L 39.226562 5.011719 L -3.675781 5.011719 Z M 6.347656 -69.964844 L 6.347656 -5.011719 L 29.203125 -5.011719 L 29.203125 -69.964844 Z M 6.347656 -69.964844 "/></g></g><g style="fill:#fff9f9;fill-opacity:1;"><g transform="translate(183.386995, 213.935648)"><path style="stroke:none" d="M 1.34375 -74.96875 L 34.21875 -74.96875 L 34.21875 0 L 1.34375 0 Z M 1.34375 -74.96875 "/></g></g><g style="fill:#171616;fill-opacity:1;"><g transform="translate(198.23303, 251.284467)"><path style="stroke:none" d="M 41.972656 -95.335938 L 66.964844 -29.714844 L 62.28125 -27.933594 L 62.28125 -32.945312 L 64.285156 -32.945312 L 64.285156 -27.933594 L 59.574219 -26.21875 L 53.597656 -42.65625 L 74.4375 -98.566406 L 123.0625 -98.566406 L 82.816406 5.011719 L 32.792969 5.011719 L -7.601562 -98.566406 L 40.742188 -98.566406 Z M 32.605469 -91.769531 L 37.289062 -93.554688 L 37.289062 -88.542969 L -0.265625 -88.542969 L -0.265625 -93.554688 L 4.402344 -95.375 L 40.886719 -1.820312 L 36.21875 0 L 36.21875 -5.011719 L 79.386719 -5.011719 L 79.386719 0 L 74.714844 -1.816406 L 111.066406 -95.367188 L 115.738281 -93.554688 L 115.738281 -88.542969 L 77.917969 -88.542969 L 77.917969 -93.554688 L 82.613281 -91.804688 L 63.636719 -40.882812 L 58.9375 -42.632812 L 63.648438 -44.347656 L 71.441406 -22.921875 L 58.824219 -22.921875 Z M 32.605469 -91.769531 "/></g></g><g style="fill:#fff9f9;fill-opacity:1;"><g transform="translate(198.23303, 251.284467)"><path style="stroke:none" d="M 37.28125 -93.546875 L 62.28125 -27.9375 L 64.28125 -27.9375 L 58.9375 -42.625 L 77.90625 -93.546875 L 115.734375 -93.546875 L 79.375 0 L 36.21875 0 L -0.265625 -93.546875 Z M 37.28125 -93.546875 "/></g></g><g style="fill:#fff9f9;fill-opacity:1;"><g transform="translate(309.677415, 251.284467)"><path style="stroke:none" d="M 1.34375 -74.96875 L 34.21875 -74.96875 L 34.21875 0 L 1.34375 0 Z M 1.34375 -74.96875 "/></g></g></g></svg>